<svg xmlns="http://www.w3.org/2000/svg" viewBox="0 0 1200 800" width="1200" height="800">
  <style>
    .line { fill:none; stroke:#007C73; stroke-width:28; stroke-linecap:round; stroke-linejoin:round; }
  </style>

  <!-- CLIP UNICO -->
  <clipPath id="sanpietro-clip">
    <!-- sagoma unica: corpo + coda + testa + pinne -->
    <path d="
      M 70 400
      L 150 330
      C 260 230, 520 210, 780 300
      C 880 260, 980 270, 1080 310
      L 1160 340
      L 1160 510
      L 1080 540
      C 980 580, 880 580, 780 540
      C 520 640, 260 570, 150 470
      L 70 400
      Z

      M 430 560
      L 380 650
      L 470 630
      Z

      M 540 570
      L 510 660
      L 600 630
      Z

      M 470 270
      L 440 190
      L 520 270
      Z

      M 530 270
      L 520 180
      L 600 290
      Z
    " />
  </clipPath>

  <!-- righe orizzontali dentro la sagoma -->
  <g clip-path="url(#sanpietro-clip)">
    <g class="line">
      <line x1="0" y1="240" x2="1200" y2="240" />
      <line x1="0" y1="280" x2="1200" y2="280" />
      <line x1="0" y1="320" x2="1200" y2="320" />
      <line x1="0" y1="360" x2="1200" y2="360" />
      <line x1="0" y1="400" x2="1200" y2="400" />
      <line x1="0" y1="440" x2="1200" y2="440" />
      <line x1="0" y1="480" x2="1200" y2="480" />
      <line x1="0" y1="520" x2="1200" y2="520" />
      <line x1="0" y1="560" x2="1200" y2="560" />
      <line x1="0" y1="600" x2="1200" y2="600" />
    </g>
  </g>

  <!-- macchia -->
  <circle cx="605" cy="430" r="55" fill="#007C73" />

  <!-- onde -->
  <path class="line" d="M100 700 C280 660, 460 740, 640 700 C820 660, 1000 740, 1180 700" />
  <path class="line" d="M100 740 C280 700, 460 780, 640 740 C820 700, 1000 780, 1180 740" />
  <path class="line" d="M100 780 C280 740, 460 820, 640 780 C820 740, 1000 820, 1180 780" />
</svg>
